<mxfile host="app.diagrams.net" modified="2020-08-25T00:47:47.409Z" agent="5.0 (Windows NT 10.0; Win64; x64) AppleWebKit/537.36 (KHTML, like Gecko) Chrome/84.0.4147.105 Safari/537.36" etag="30Xs8-F7m0znIVIqJokz" version="13.6.4" type="github">
  <diagram id="JW4kilssBpTSuZc6nk0B" name="Page-1">
    <mxGraphModel dx="1822" dy="1562" grid="0" gridSize="10" guides="1" tooltips="1" connect="1" arrows="1" fold="1" page="0" pageScale="1" pageWidth="827" pageHeight="1169" math="0" shadow="0">
      <root>
        <mxCell id="0" />
        <mxCell id="1" parent="0" />
        <mxCell id="iC9vkl7YeuPbztsIKsLM-1" value="构造方法 创建 reader 和 scanner" style="text;html=1;align=center;verticalAlign=middle;resizable=0;points=[];autosize=1;" parent="1" vertex="1">
          <mxGeometry x="33" y="-352" width="185" height="18" as="geometry" />
        </mxCell>
        <mxCell id="iC9vkl7YeuPbztsIKsLM-2" value="reader 注册bean" style="text;html=1;strokeColor=none;fillColor=none;align=center;verticalAlign=middle;whiteSpace=wrap;rounded=0;" parent="1" vertex="1">
          <mxGeometry x="63" y="-269" width="117" height="36" as="geometry" />
        </mxCell>
        <mxCell id="iC9vkl7YeuPbztsIKsLM-3" value="创建beanDefinitiion" style="text;html=1;align=center;verticalAlign=middle;resizable=0;points=[];autosize=1;" parent="1" vertex="1">
          <mxGeometry x="182" y="-262" width="113" height="18" as="geometry" />
        </mxCell>
        <mxCell id="iC9vkl7YeuPbztsIKsLM-4" value="scope,lazy,primary 等属性" style="text;html=1;align=center;verticalAlign=middle;resizable=0;points=[];autosize=1;" parent="1" vertex="1">
          <mxGeometry x="308" y="-264" width="148" height="18" as="geometry" />
        </mxCell>
        <mxCell id="iC9vkl7YeuPbztsIKsLM-19" value="Extends" style="endArrow=block;endSize=16;endFill=0;html=1;entryX=0.431;entryY=1.154;entryDx=0;entryDy=0;entryPerimeter=0;exitX=0.25;exitY=0;exitDx=0;exitDy=0;" parent="1" source="iC9vkl7YeuPbztsIKsLM-15" target="iC9vkl7YeuPbztsIKsLM-13" edge="1">
          <mxGeometry width="160" relative="1" as="geometry">
            <mxPoint x="285" y="344" as="sourcePoint" />
            <mxPoint x="445" y="344" as="targetPoint" />
          </mxGeometry>
        </mxCell>
        <mxCell id="iC9vkl7YeuPbztsIKsLM-10" value="GenericApplicationContext" style="swimlane;fontStyle=1;align=center;verticalAlign=top;childLayout=stackLayout;horizontal=1;startSize=26;horizontalStack=0;resizeParent=1;resizeParentMax=0;resizeLast=0;collapsible=1;marginBottom=0;" parent="1" vertex="1">
          <mxGeometry x="44" y="126" width="202" height="86" as="geometry">
            <mxRectangle x="91" y="97" width="90" height="26" as="alternateBounds" />
          </mxGeometry>
        </mxCell>
        <mxCell id="iC9vkl7YeuPbztsIKsLM-11" value="DefaultListableBeanFactory" style="text;strokeColor=none;fillColor=none;align=left;verticalAlign=top;spacingLeft=4;spacingRight=4;overflow=hidden;rotatable=0;points=[[0,0.5],[1,0.5]];portConstraint=eastwest;" parent="iC9vkl7YeuPbztsIKsLM-10" vertex="1">
          <mxGeometry y="26" width="202" height="26" as="geometry" />
        </mxCell>
        <mxCell id="iC9vkl7YeuPbztsIKsLM-12" value="" style="line;strokeWidth=1;fillColor=none;align=left;verticalAlign=middle;spacingTop=-1;spacingLeft=3;spacingRight=3;rotatable=0;labelPosition=right;points=[];portConstraint=eastwest;" parent="iC9vkl7YeuPbztsIKsLM-10" vertex="1">
          <mxGeometry y="52" width="202" height="8" as="geometry" />
        </mxCell>
        <mxCell id="iC9vkl7YeuPbztsIKsLM-13" value="+ method(type): type" style="text;strokeColor=none;fillColor=none;align=left;verticalAlign=top;spacingLeft=4;spacingRight=4;overflow=hidden;rotatable=0;points=[[0,0.5],[1,0.5]];portConstraint=eastwest;" parent="iC9vkl7YeuPbztsIKsLM-10" vertex="1">
          <mxGeometry y="60" width="202" height="26" as="geometry" />
        </mxCell>
        <mxCell id="iC9vkl7YeuPbztsIKsLM-15" value="AnnotationConfigApplicationContext" style="swimlane;fontStyle=1;align=center;verticalAlign=top;childLayout=stackLayout;horizontal=1;startSize=26;horizontalStack=0;resizeParent=1;resizeParentMax=0;resizeLast=0;collapsible=1;marginBottom=0;" parent="1" vertex="1">
          <mxGeometry x="22" y="296" width="243" height="97" as="geometry" />
        </mxCell>
        <mxCell id="iC9vkl7YeuPbztsIKsLM-16" value="AnnotatedBeanDefinitionReader&#xa;ClassPathBeanDefinitionScanner&#xa;" style="text;strokeColor=none;fillColor=none;align=left;verticalAlign=top;spacingLeft=4;spacingRight=4;overflow=hidden;rotatable=0;points=[[0,0.5],[1,0.5]];portConstraint=eastwest;" parent="iC9vkl7YeuPbztsIKsLM-15" vertex="1">
          <mxGeometry y="26" width="243" height="37" as="geometry" />
        </mxCell>
        <mxCell id="iC9vkl7YeuPbztsIKsLM-17" value="" style="line;strokeWidth=1;fillColor=none;align=left;verticalAlign=middle;spacingTop=-1;spacingLeft=3;spacingRight=3;rotatable=0;labelPosition=right;points=[];portConstraint=eastwest;" parent="iC9vkl7YeuPbztsIKsLM-15" vertex="1">
          <mxGeometry y="63" width="243" height="8" as="geometry" />
        </mxCell>
        <mxCell id="iC9vkl7YeuPbztsIKsLM-18" value="+ method(type): type" style="text;strokeColor=none;fillColor=none;align=left;verticalAlign=top;spacingLeft=4;spacingRight=4;overflow=hidden;rotatable=0;points=[[0,0.5],[1,0.5]];portConstraint=eastwest;" parent="iC9vkl7YeuPbztsIKsLM-15" vertex="1">
          <mxGeometry y="71" width="243" height="26" as="geometry" />
        </mxCell>
        <mxCell id="iC9vkl7YeuPbztsIKsLM-27" value="" style="endArrow=block;dashed=1;endFill=0;endSize=12;html=1;exitX=0.5;exitY=0;exitDx=0;exitDy=0;entryX=0.468;entryY=0.962;entryDx=0;entryDy=0;entryPerimeter=0;" parent="1" source="iC9vkl7YeuPbztsIKsLM-10" target="iC9vkl7YeuPbztsIKsLM-26" edge="1">
          <mxGeometry width="160" relative="1" as="geometry">
            <mxPoint x="332" y="15" as="sourcePoint" />
            <mxPoint x="492" y="15" as="targetPoint" />
          </mxGeometry>
        </mxCell>
        <mxCell id="iC9vkl7YeuPbztsIKsLM-28" value="DefaultListableBeanFactory" style="swimlane;fontStyle=1;align=center;verticalAlign=top;childLayout=stackLayout;horizontal=1;startSize=26;horizontalStack=0;resizeParent=1;resizeParentMax=0;resizeLast=0;collapsible=1;marginBottom=0;" parent="1" vertex="1">
          <mxGeometry x="447" y="122" width="220" height="86" as="geometry" />
        </mxCell>
        <mxCell id="iC9vkl7YeuPbztsIKsLM-29" value="beanDefinitionMap" style="text;strokeColor=none;fillColor=none;align=left;verticalAlign=top;spacingLeft=4;spacingRight=4;overflow=hidden;rotatable=0;points=[[0,0.5],[1,0.5]];portConstraint=eastwest;" parent="iC9vkl7YeuPbztsIKsLM-28" vertex="1">
          <mxGeometry y="26" width="220" height="26" as="geometry" />
        </mxCell>
        <mxCell id="iC9vkl7YeuPbztsIKsLM-30" value="" style="line;strokeWidth=1;fillColor=none;align=left;verticalAlign=middle;spacingTop=-1;spacingLeft=3;spacingRight=3;rotatable=0;labelPosition=right;points=[];portConstraint=eastwest;" parent="iC9vkl7YeuPbztsIKsLM-28" vertex="1">
          <mxGeometry y="52" width="220" height="8" as="geometry" />
        </mxCell>
        <mxCell id="iC9vkl7YeuPbztsIKsLM-31" value="+ method(type): type" style="text;strokeColor=none;fillColor=none;align=left;verticalAlign=top;spacingLeft=4;spacingRight=4;overflow=hidden;rotatable=0;points=[[0,0.5],[1,0.5]];portConstraint=eastwest;" parent="iC9vkl7YeuPbztsIKsLM-28" vertex="1">
          <mxGeometry y="60" width="220" height="26" as="geometry" />
        </mxCell>
        <mxCell id="iC9vkl7YeuPbztsIKsLM-32" value="" style="endArrow=block;dashed=1;endFill=0;endSize=12;html=1;entryX=0.5;entryY=1;entryDx=0;entryDy=0;exitX=0.5;exitY=0;exitDx=0;exitDy=0;" parent="1" source="iC9vkl7YeuPbztsIKsLM-28" target="iC9vkl7YeuPbztsIKsLM-23" edge="1">
          <mxGeometry width="160" relative="1" as="geometry">
            <mxPoint x="381" y="358" as="sourcePoint" />
            <mxPoint x="541" y="358" as="targetPoint" />
          </mxGeometry>
        </mxCell>
        <mxCell id="iC9vkl7YeuPbztsIKsLM-33" value="1" style="endArrow=open;html=1;endSize=12;startArrow=diamondThin;startSize=14;startFill=1;edgeStyle=orthogonalEdgeStyle;align=left;verticalAlign=bottom;exitX=1;exitY=0.5;exitDx=0;exitDy=0;entryX=0;entryY=0.186;entryDx=0;entryDy=0;entryPerimeter=0;" parent="1" source="iC9vkl7YeuPbztsIKsLM-11" target="iC9vkl7YeuPbztsIKsLM-28" edge="1">
          <mxGeometry x="-1" y="3" relative="1" as="geometry">
            <mxPoint x="434" y="285" as="sourcePoint" />
            <mxPoint x="594" y="285" as="targetPoint" />
          </mxGeometry>
        </mxCell>
        <object label="AnnotatedBeanDefinitionReader" placeholders="1" id="iC9vkl7YeuPbztsIKsLM-34">
          <mxCell style="swimlane;fontStyle=1;align=center;verticalAlign=top;childLayout=stackLayout;horizontal=1;startSize=26;horizontalStack=0;resizeParent=1;resizeParentMax=0;resizeLast=0;collapsible=1;marginBottom=0;" parent="1" vertex="1">
            <mxGeometry x="436" y="300" width="218" height="86" as="geometry" />
          </mxCell>
        </object>
        <mxCell id="iC9vkl7YeuPbztsIKsLM-35" value="BeanDefinitionRegistry" style="text;strokeColor=none;fillColor=none;align=left;verticalAlign=top;spacingLeft=4;spacingRight=4;overflow=hidden;rotatable=0;points=[[0,0.5],[1,0.5]];portConstraint=eastwest;" parent="iC9vkl7YeuPbztsIKsLM-34" vertex="1">
          <mxGeometry y="26" width="218" height="26" as="geometry" />
        </mxCell>
        <mxCell id="iC9vkl7YeuPbztsIKsLM-36" value="" style="line;strokeWidth=1;fillColor=none;align=left;verticalAlign=middle;spacingTop=-1;spacingLeft=3;spacingRight=3;rotatable=0;labelPosition=right;points=[];portConstraint=eastwest;" parent="iC9vkl7YeuPbztsIKsLM-34" vertex="1">
          <mxGeometry y="52" width="218" height="8" as="geometry" />
        </mxCell>
        <mxCell id="iC9vkl7YeuPbztsIKsLM-37" value="+ method(type): type" style="text;strokeColor=none;fillColor=none;align=left;verticalAlign=top;spacingLeft=4;spacingRight=4;overflow=hidden;rotatable=0;points=[[0,0.5],[1,0.5]];portConstraint=eastwest;" parent="iC9vkl7YeuPbztsIKsLM-34" vertex="1">
          <mxGeometry y="60" width="218" height="26" as="geometry" />
        </mxCell>
        <mxCell id="iC9vkl7YeuPbztsIKsLM-38" value="1" style="endArrow=open;html=1;endSize=12;startArrow=diamondThin;startSize=14;startFill=1;edgeStyle=orthogonalEdgeStyle;align=left;verticalAlign=bottom;exitX=1.008;exitY=0.27;exitDx=0;exitDy=0;exitPerimeter=0;entryX=0;entryY=0.116;entryDx=0;entryDy=0;entryPerimeter=0;" parent="1" source="iC9vkl7YeuPbztsIKsLM-16" target="iC9vkl7YeuPbztsIKsLM-34" edge="1">
          <mxGeometry x="-1" y="3" relative="1" as="geometry">
            <mxPoint x="313" y="424" as="sourcePoint" />
            <mxPoint x="473" y="424" as="targetPoint" />
          </mxGeometry>
        </mxCell>
        <mxCell id="iC9vkl7YeuPbztsIKsLM-45" style="edgeStyle=orthogonalEdgeStyle;rounded=0;orthogonalLoop=1;jettySize=auto;html=1;exitX=1;exitY=0.5;exitDx=0;exitDy=0;entryX=1;entryY=0.5;entryDx=0;entryDy=0;fillColor=#fa6800;strokeColor=#FF3333;" parent="1" source="iC9vkl7YeuPbztsIKsLM-41" target="iC9vkl7YeuPbztsIKsLM-29" edge="1">
          <mxGeometry relative="1" as="geometry" />
        </mxCell>
        <mxCell id="iC9vkl7YeuPbztsIKsLM-41" value="&lt;span style=&quot;&quot;&gt;解析 Class,得到BeanDefinition&lt;br&gt;最后调用factory的registerBeanDefinition 方法，将其保存到map&lt;br&gt;&lt;/span&gt;" style="rounded=1;whiteSpace=wrap;html=1;arcSize=40;fontColor=#000000;fillColor=#ffffc0;strokeColor=#ff0000;align=left;" parent="1" vertex="1">
          <mxGeometry x="515" y="437" width="261" height="58" as="geometry" />
        </mxCell>
        <mxCell id="iC9vkl7YeuPbztsIKsLM-42" value="" style="edgeStyle=orthogonalEdgeStyle;html=1;verticalAlign=bottom;endArrow=open;endSize=8;strokeColor=#ff0000;entryX=1.005;entryY=0.128;entryDx=0;entryDy=0;entryPerimeter=0;" parent="1" source="iC9vkl7YeuPbztsIKsLM-41" target="iC9vkl7YeuPbztsIKsLM-34" edge="1">
          <mxGeometry relative="1" as="geometry">
            <mxPoint x="532" y="567" as="targetPoint" />
            <Array as="points">
              <mxPoint x="700" y="311" />
            </Array>
          </mxGeometry>
        </mxCell>
        <mxCell id="iC9vkl7YeuPbztsIKsLM-43" value="new AnnotatedBeanDefinitionReader(this);&lt;br&gt;创建 reader&lt;br&gt;过程使用 RootBeanDefinition 创建并注册 6 个&amp;nbsp;post processors" style="rounded=1;whiteSpace=wrap;html=1;arcSize=40;fontColor=#000000;fillColor=#ffffc0;strokeColor=#ff0000;" parent="1" vertex="1">
          <mxGeometry x="177" y="502" width="240" height="59" as="geometry" />
        </mxCell>
        <mxCell id="iC9vkl7YeuPbztsIKsLM-44" value="" style="edgeStyle=orthogonalEdgeStyle;html=1;verticalAlign=bottom;endArrow=open;endSize=8;strokeColor=#ff0000;entryX=1.012;entryY=0.703;entryDx=0;entryDy=0;entryPerimeter=0;" parent="1" source="iC9vkl7YeuPbztsIKsLM-43" target="iC9vkl7YeuPbztsIKsLM-16" edge="1">
          <mxGeometry relative="1" as="geometry">
            <mxPoint x="373" y="565" as="targetPoint" />
          </mxGeometry>
        </mxCell>
        <mxCell id="iC9vkl7YeuPbztsIKsLM-46" value="BeanPostProcessor" style="text;html=1;align=center;verticalAlign=middle;resizable=0;points=[];autosize=1;" parent="1" vertex="1">
          <mxGeometry x="433" y="-177" width="116" height="18" as="geometry" />
        </mxCell>
        <mxCell id="iC9vkl7YeuPbztsIKsLM-47" value="refresh&amp;nbsp;" style="rounded=0;whiteSpace=wrap;html=1;align=center;" parent="1" vertex="1">
          <mxGeometry x="1161.5" y="-63" width="109" height="44" as="geometry" />
        </mxCell>
        <mxCell id="iC9vkl7YeuPbztsIKsLM-50" value="BeanPostProcessor" style="swimlane;fontStyle=1;align=center;verticalAlign=top;childLayout=stackLayout;horizontal=1;startSize=26;horizontalStack=0;resizeParent=1;resizeParentMax=0;resizeLast=0;collapsible=1;marginBottom=0;" parent="1" vertex="1">
          <mxGeometry x="1556" y="-516" width="183" height="72" as="geometry" />
        </mxCell>
        <mxCell id="iC9vkl7YeuPbztsIKsLM-52" value="" style="line;strokeWidth=1;fillColor=none;align=left;verticalAlign=middle;spacingTop=-1;spacingLeft=3;spacingRight=3;rotatable=0;labelPosition=right;points=[];portConstraint=eastwest;" parent="iC9vkl7YeuPbztsIKsLM-50" vertex="1">
          <mxGeometry y="26" width="183" height="8" as="geometry" />
        </mxCell>
        <mxCell id="iC9vkl7YeuPbztsIKsLM-53" value="postProcessBeforeInitialization&#xa;postProcessAfterInitialization&#xa;" style="text;strokeColor=none;fillColor=none;align=left;verticalAlign=top;spacingLeft=4;spacingRight=4;overflow=hidden;rotatable=0;points=[[0,0.5],[1,0.5]];portConstraint=eastwest;" parent="iC9vkl7YeuPbztsIKsLM-50" vertex="1">
          <mxGeometry y="34" width="183" height="38" as="geometry" />
        </mxCell>
        <mxCell id="iC9vkl7YeuPbztsIKsLM-54" value="后置处理器，在bean 的初始化前和初始后执行&lt;br&gt;1.构造方法&lt;br&gt;2,.初始化前&lt;br&gt;3. 初始方法 （&lt;span style=&quot;background-color: transparent ; font-family: &amp;#34;microsoft yahei&amp;#34; , &amp;#34;stxihei&amp;#34;&quot;&gt;@Bean initMethod 或实现 InitializingBean 或 @PostConstructor)&lt;br&gt;4. 初始化后&lt;br&gt;5. 销毁方法 （&lt;/span&gt;&lt;span style=&quot;background-color: transparent ; font-family: &amp;#34;microsoft yahei&amp;#34; , &amp;#34;stxihei&amp;#34;&quot;&gt;@Bean destroyMethod 或实现 DisposableBean  或@PreDestroy&lt;/span&gt;&lt;span style=&quot;background-color: transparent ; font-family: &amp;#34;microsoft yahei&amp;#34; , &amp;#34;stxihei&amp;#34;&quot;&gt;）&lt;br&gt;&lt;/span&gt;" style="rounded=1;whiteSpace=wrap;html=1;arcSize=40;fontColor=#000000;fillColor=#ffffc0;strokeColor=#ff0000;align=left;" parent="1" vertex="1">
          <mxGeometry x="1801" y="-518" width="472" height="109" as="geometry" />
        </mxCell>
        <mxCell id="iC9vkl7YeuPbztsIKsLM-55" value="" style="edgeStyle=orthogonalEdgeStyle;html=1;verticalAlign=bottom;endArrow=open;endSize=8;strokeColor=#ff0000;entryX=1;entryY=0.25;entryDx=0;entryDy=0;" parent="1" source="iC9vkl7YeuPbztsIKsLM-54" target="iC9vkl7YeuPbztsIKsLM-50" edge="1">
          <mxGeometry relative="1" as="geometry">
            <mxPoint x="1797" y="-237" as="targetPoint" />
          </mxGeometry>
        </mxCell>
        <mxCell id="iC9vkl7YeuPbztsIKsLM-56" value="ApplicationContextAwareProcessor" style="swimlane;fontStyle=1;align=center;verticalAlign=top;childLayout=stackLayout;horizontal=1;startSize=26;horizontalStack=0;resizeParent=1;resizeParentMax=0;resizeLast=0;collapsible=1;marginBottom=0;" parent="1" vertex="1">
          <mxGeometry x="1434" y="-354" width="246" height="60" as="geometry" />
        </mxCell>
        <mxCell id="iC9vkl7YeuPbztsIKsLM-57" value="给那些实现 XXXAware 的类注入相应的对象" style="text;strokeColor=none;fillColor=none;align=left;verticalAlign=top;spacingLeft=4;spacingRight=4;overflow=hidden;rotatable=0;points=[[0,0.5],[1,0.5]];portConstraint=eastwest;" parent="iC9vkl7YeuPbztsIKsLM-56" vertex="1">
          <mxGeometry y="26" width="246" height="26" as="geometry" />
        </mxCell>
        <mxCell id="iC9vkl7YeuPbztsIKsLM-58" value="" style="line;strokeWidth=1;fillColor=none;align=left;verticalAlign=middle;spacingTop=-1;spacingLeft=3;spacingRight=3;rotatable=0;labelPosition=right;points=[];portConstraint=eastwest;" parent="iC9vkl7YeuPbztsIKsLM-56" vertex="1">
          <mxGeometry y="52" width="246" height="8" as="geometry" />
        </mxCell>
        <mxCell id="iC9vkl7YeuPbztsIKsLM-60" value="" style="endArrow=block;dashed=1;endFill=0;endSize=12;html=1;entryX=0.432;entryY=1.026;entryDx=0;entryDy=0;entryPerimeter=0;" parent="1" source="iC9vkl7YeuPbztsIKsLM-56" target="iC9vkl7YeuPbztsIKsLM-53" edge="1">
          <mxGeometry width="160" relative="1" as="geometry">
            <mxPoint x="1263" y="-253" as="sourcePoint" />
            <mxPoint x="1423" y="-253" as="targetPoint" />
          </mxGeometry>
        </mxCell>
        <mxCell id="iC9vkl7YeuPbztsIKsLM-23" value="BeanDefinitionRegistry" style="swimlane;fontStyle=1;align=center;verticalAlign=top;childLayout=stackLayout;horizontal=1;startSize=26;horizontalStack=0;resizeParent=1;resizeParentMax=0;resizeLast=0;collapsible=1;marginBottom=0;" parent="1" vertex="1" collapsed="1">
          <mxGeometry x="238" y="13" width="160" height="26" as="geometry">
            <mxRectangle x="155" y="-111" width="173" height="86" as="alternateBounds" />
          </mxGeometry>
        </mxCell>
        <mxCell id="iC9vkl7YeuPbztsIKsLM-24" value="+ field: type" style="text;strokeColor=none;fillColor=none;align=left;verticalAlign=top;spacingLeft=4;spacingRight=4;overflow=hidden;rotatable=0;points=[[0,0.5],[1,0.5]];portConstraint=eastwest;" parent="iC9vkl7YeuPbztsIKsLM-23" vertex="1">
          <mxGeometry y="26" width="160" height="26" as="geometry" />
        </mxCell>
        <mxCell id="iC9vkl7YeuPbztsIKsLM-25" value="" style="line;strokeWidth=1;fillColor=none;align=left;verticalAlign=middle;spacingTop=-1;spacingLeft=3;spacingRight=3;rotatable=0;labelPosition=right;points=[];portConstraint=eastwest;" parent="iC9vkl7YeuPbztsIKsLM-23" vertex="1">
          <mxGeometry y="52" width="160" height="8" as="geometry" />
        </mxCell>
        <mxCell id="iC9vkl7YeuPbztsIKsLM-26" value="+ method(type): type" style="text;strokeColor=none;fillColor=none;align=left;verticalAlign=top;spacingLeft=4;spacingRight=4;overflow=hidden;rotatable=0;points=[[0,0.5],[1,0.5]];portConstraint=eastwest;" parent="iC9vkl7YeuPbztsIKsLM-23" vertex="1">
          <mxGeometry y="60" width="160" height="26" as="geometry" />
        </mxCell>
        <mxCell id="RXidVG7B2wAVTokUkOC6-2" value="AbstractApplicationContext" style="swimlane;fontStyle=1;align=center;verticalAlign=top;childLayout=stackLayout;horizontal=1;startSize=26;horizontalStack=0;resizeParent=1;resizeParentMax=0;resizeLast=0;collapsible=1;marginBottom=0;" parent="1" vertex="1">
          <mxGeometry x="-143" y="-15" width="184" height="60" as="geometry" />
        </mxCell>
        <mxCell id="RXidVG7B2wAVTokUkOC6-4" value="" style="line;strokeWidth=1;fillColor=none;align=left;verticalAlign=middle;spacingTop=-1;spacingLeft=3;spacingRight=3;rotatable=0;labelPosition=right;points=[];portConstraint=eastwest;" parent="RXidVG7B2wAVTokUkOC6-2" vertex="1">
          <mxGeometry y="26" width="184" height="8" as="geometry" />
        </mxCell>
        <mxCell id="RXidVG7B2wAVTokUkOC6-5" value="refresh" style="text;strokeColor=none;fillColor=none;align=left;verticalAlign=top;spacingLeft=4;spacingRight=4;overflow=hidden;rotatable=0;points=[[0,0.5],[1,0.5]];portConstraint=eastwest;" parent="RXidVG7B2wAVTokUkOC6-2" vertex="1">
          <mxGeometry y="34" width="184" height="26" as="geometry" />
        </mxCell>
        <mxCell id="RXidVG7B2wAVTokUkOC6-6" value="Extends" style="endArrow=block;endSize=16;endFill=0;html=1;entryX=0.44;entryY=1.115;entryDx=0;entryDy=0;entryPerimeter=0;exitX=0.5;exitY=0;exitDx=0;exitDy=0;" parent="1" source="iC9vkl7YeuPbztsIKsLM-10" target="RXidVG7B2wAVTokUkOC6-5" edge="1">
          <mxGeometry width="160" relative="1" as="geometry">
            <mxPoint x="-237" y="224" as="sourcePoint" />
            <mxPoint x="-77" y="224" as="targetPoint" />
          </mxGeometry>
        </mxCell>
        <mxCell id="RXidVG7B2wAVTokUkOC6-7" value="obtainFreshBeanFactory()&lt;br&gt;" style="rounded=0;whiteSpace=wrap;html=1;" parent="1" vertex="1">
          <mxGeometry x="1129" y="33" width="174" height="36" as="geometry" />
        </mxCell>
        <mxCell id="RXidVG7B2wAVTokUkOC6-8" value="ConfigurableListableBeanFactory" style="swimlane;fontStyle=1;align=center;verticalAlign=top;childLayout=stackLayout;horizontal=1;startSize=26;horizontalStack=0;resizeParent=1;resizeParentMax=0;resizeLast=0;collapsible=1;marginBottom=0;" parent="1" vertex="1">
          <mxGeometry x="556" y="-1" width="240" height="34" as="geometry" />
        </mxCell>
        <mxCell id="RXidVG7B2wAVTokUkOC6-10" value="" style="line;strokeWidth=1;fillColor=none;align=left;verticalAlign=middle;spacingTop=-1;spacingLeft=3;spacingRight=3;rotatable=0;labelPosition=right;points=[];portConstraint=eastwest;" parent="RXidVG7B2wAVTokUkOC6-8" vertex="1">
          <mxGeometry y="26" width="240" height="8" as="geometry" />
        </mxCell>
        <mxCell id="RXidVG7B2wAVTokUkOC6-12" value="" style="endArrow=block;dashed=1;endFill=0;endSize=12;html=1;entryX=0.5;entryY=1;entryDx=0;entryDy=0;exitX=0.5;exitY=0;exitDx=0;exitDy=0;" parent="1" source="iC9vkl7YeuPbztsIKsLM-28" target="RXidVG7B2wAVTokUkOC6-8" edge="1">
          <mxGeometry width="160" relative="1" as="geometry">
            <mxPoint x="757" y="525" as="sourcePoint" />
            <mxPoint x="917" y="525" as="targetPoint" />
          </mxGeometry>
        </mxCell>
        <mxCell id="RXidVG7B2wAVTokUkOC6-13" value="获得&amp;nbsp;GenericApplicationContext 的&amp;nbsp;DefaultListableBeanFactory" style="text;html=1;align=center;verticalAlign=middle;resizable=0;points=[];autosize=1;" parent="1" vertex="1">
          <mxGeometry x="1338" y="42" width="346" height="18" as="geometry" />
        </mxCell>
        <UserObject label="prepareBeanFactory(beanFactory)" link="data:action/json,{&quot;actions&quot;:[{&quot;scroll&quot;: {&quot;cells&quot;: [&quot;RXidVG7B2wAVTokUkOC6-16&quot;]}}]}" id="RXidVG7B2wAVTokUkOC6-14">
          <mxCell style="rounded=0;whiteSpace=wrap;html=1;" parent="1" vertex="1">
            <mxGeometry x="1116" y="108" width="200" height="32" as="geometry" />
          </mxCell>
        </UserObject>
        <mxCell id="RXidVG7B2wAVTokUkOC6-15" value="&lt;a href=&quot;https://www.jianshu.com/p/3c7e0608ff1f&quot;&gt;https://www.jianshu.com/p/3c7e0608ff1f&lt;/a&gt;" style="text;html=1;align=center;verticalAlign=middle;resizable=0;points=[];autosize=1;" parent="1" vertex="1">
          <mxGeometry x="1904" y="-9" width="221" height="18" as="geometry" />
        </mxCell>
        <object label="prepareBeanFactory" id="RXidVG7B2wAVTokUkOC6-16">
          <mxCell style="whiteSpace=wrap;html=1;" parent="1" vertex="1">
            <mxGeometry x="1756" y="89" width="120" height="60" as="geometry" />
          </mxCell>
        </object>
        <mxCell id="ibQPD80SMZ2e6r9_aLOA-1" value="&amp;nbsp;drawIO 跳转&amp;nbsp;&lt;a href=&quot;https://drawio-app.com/interactive-diagrams-with-custom-links-and-actions/&quot;&gt;https://drawio-app.com/interactive-diagrams-with-custom-links-and-actions/&lt;/a&gt;" style="text;html=1;align=center;verticalAlign=middle;resizable=0;points=[];autosize=1;" vertex="1" parent="1">
          <mxGeometry x="-151" y="-455" width="481" height="18" as="geometry" />
        </mxCell>
        <mxCell id="ibQPD80SMZ2e6r9_aLOA-2" value="设置&amp;nbsp;" style="rounded=0;whiteSpace=wrap;html=1;" vertex="1" parent="1">
          <mxGeometry x="1756" y="180" width="120" height="60" as="geometry" />
        </mxCell>
      </root>
    </mxGraphModel>
  </diagram>
</mxfile>
